<svg width="26" height="23" viewBox="0 0 26 23" fill="none" xmlns="http://www.w3.org/2000/svg">
<path d="M12.1618 0.38793C11.7497 0.506662 11.3307 0.779048 11.1072 1.07937C10.8906 1.36573 0.630769 19.1267 0.400288 19.6086C0.274572 19.874 0.232666 20.0765 0.232666 20.4467C0.232666 21.3058 0.700611 22.0321 1.48285 22.3953L1.80412 22.542H12.7345H23.6648L23.9861 22.3953C24.475 22.1648 24.8452 21.7947 25.0617 21.3128C25.2293 20.9286 25.2503 20.8169 25.2223 20.342C25.1944 19.9159 25.1455 19.7273 24.9709 19.4061C24.1607 17.9044 14.4736 1.21207 14.285 0.99556C13.831 0.457773 12.8812 0.185387 12.1618 0.38793ZM13.4329 7.03694C13.7053 7.17663 13.9707 7.51886 14.0615 7.82616C14.1593 8.18934 14.1523 13.8606 14.0545 14.2307C13.9078 14.7476 13.3142 15.1736 12.7345 15.1736C12.1548 15.1736 11.5611 14.7476 11.4145 14.2307C11.3167 13.8606 11.3097 8.18934 11.4075 7.82616C11.4913 7.53981 11.7567 7.18361 11.9942 7.0579C12.3783 6.84837 13.0488 6.84138 13.4329 7.03694ZM13.2094 17.1013C13.7542 17.3248 14.0824 17.7927 14.0824 18.3514C14.0894 18.9241 13.7891 19.3921 13.2723 19.6086C12.8113 19.8042 12.1618 19.6994 11.8056 19.3781C11.4145 19.0289 11.2608 18.2397 11.4983 17.7927C11.8335 17.1432 12.5878 16.8359 13.2094 17.1013Z" fill="#EE404C"/>
</svg>
