<svg width="241" height="64" viewBox="0 0 241 64" fill="none" xmlns="http://www.w3.org/2000/svg">
<path fill-rule="evenodd" clip-rule="evenodd" d="M84.5179 42.3726H79.2793V22.0041H84.5179V30.296H87.0032L90.1837 22.0041H95.4178V24.0396L91.3286 32.0453L95.8358 40.3371V42.3726H90.638L87.0032 34.0807H84.5316V42.3726H84.5179ZM104.305 42.3726H99.0662V22.0041H110.125C110.745 21.977 111.365 22.0766 111.945 22.2969C112.525 22.5172 113.055 22.8536 113.501 23.2854C113.913 23.685 114.239 24.1649 114.459 24.6955C114.679 25.2262 114.787 25.7962 114.778 26.3704V31.7499C114.795 32.3335 114.688 32.9142 114.465 33.4537C114.242 33.9932 113.907 34.4794 113.483 34.8804C113.032 35.2971 112.503 35.6208 111.927 35.8329C111.351 36.045 110.738 36.1412 110.125 36.1162H104.305V42.3726ZM108.521 25.7889H104.305V32.336H108.521C108.656 32.3398 108.791 32.3159 108.917 32.2659C109.043 32.2158 109.157 32.1407 109.252 32.045C109.348 31.9493 109.423 31.8351 109.473 31.7094C109.523 31.5836 109.547 31.449 109.543 31.3138V26.8066C109.547 26.6717 109.522 26.5376 109.472 26.4124C109.422 26.2872 109.346 26.1736 109.251 26.0784C109.155 25.9832 109.041 25.9084 108.916 25.8586C108.79 25.8089 108.656 25.7851 108.521 25.7889ZM118.417 22.0041H123.656V28.9875H129.185C129.798 28.9625 130.411 29.0587 130.987 29.2708C131.563 29.4829 132.092 29.8066 132.543 30.2233C132.967 30.6246 133.301 31.1109 133.524 31.6503C133.747 32.1898 133.854 32.7702 133.837 33.3538V38.0063C133.847 38.5805 133.739 39.1506 133.519 39.6812C133.299 40.2118 132.973 40.6918 132.561 41.0913C132.115 41.5232 131.585 41.8595 131.005 42.0798C130.424 42.3001 129.805 42.3997 129.185 42.3726H118.417V22.0041ZM123.656 38.5924H127.581C127.716 38.5955 127.851 38.5712 127.976 38.5209C128.101 38.4707 128.215 38.3955 128.311 38.2999C128.406 38.2044 128.482 38.0904 128.532 37.965C128.582 37.8396 128.607 37.7052 128.603 37.5701V33.79C128.608 33.6539 128.585 33.5183 128.536 33.3915C128.487 33.2647 128.412 33.1494 128.316 33.0527C128.22 32.9561 128.105 32.8801 127.979 32.8295C127.853 32.7789 127.717 32.7548 127.581 32.7586H123.656V38.5924ZM141.979 42.3726H136.75V22.0041H141.979V42.3726ZM144.596 38.8832H145.905C146.051 38.8821 146.195 38.8504 146.328 38.7901C146.461 38.7299 146.58 38.6424 146.677 38.5334C146.894 38.3109 147.033 38.0238 147.073 37.7155L148.527 22.0041H162.784V42.3726H157.554V25.7889H153.193L152.17 37.7155C152.039 39.3648 151.475 40.6052 150.485 41.4276C149.494 42.2499 147.972 42.6634 145.914 42.6634H144.606V38.8832H144.596ZM167.441 22.0041H172.68V28.9875H178.509C179.123 28.9625 179.735 29.0587 180.311 29.2708C180.887 29.4829 181.416 29.8066 181.867 30.2233C182.291 30.6246 182.625 31.1109 182.848 31.6503C183.071 32.1898 183.178 32.7702 183.162 33.3538V38.0063C183.17 38.5804 183.061 39.1501 182.842 39.6806C182.622 40.2111 182.296 40.6911 181.885 41.0913C181.439 41.5232 180.909 41.8595 180.329 42.0798C179.749 42.3001 179.129 42.3997 178.509 42.3726H167.45V22.0041H167.441ZM172.68 38.5924H176.896C177.031 38.5949 177.165 38.5701 177.29 38.5196C177.414 38.469 177.528 38.3937 177.623 38.2982C177.718 38.2028 177.793 38.089 177.843 37.9639C177.893 37.8388 177.917 37.7048 177.914 37.5701V33.79C177.919 33.6551 177.896 33.5207 177.848 33.3948C177.799 33.2689 177.725 33.1543 177.631 33.0578C177.537 32.9613 177.424 32.885 177.299 32.8336C177.174 32.7822 177.04 32.7566 176.905 32.7586H172.689V38.5924H172.68ZM202.212 42.3726H196.987V35.103H194.657L191.167 42.3726H185.929V40.3371L189.854 34.5169C189.257 34.3509 188.689 34.0951 188.169 33.7581C187.648 33.4469 187.219 33.0025 186.927 32.4707C186.634 31.9389 186.489 31.3388 186.506 30.7322V26.3704C186.497 25.7975 186.604 25.2288 186.821 24.6986C187.038 24.1683 187.361 23.6876 187.769 23.2854C188.216 22.8502 188.748 22.5118 189.332 22.2913C189.916 22.0709 190.539 21.9731 191.163 22.0041H202.217V42.3726H202.212ZM196.978 25.7889H192.757C192.623 25.7858 192.489 25.81 192.364 25.86C192.239 25.9101 192.126 25.9849 192.031 26.08C191.936 26.1752 191.861 26.2886 191.811 26.4135C191.761 26.5384 191.737 26.6721 191.74 26.8066V30.296C191.737 30.4305 191.761 30.5642 191.811 30.6891C191.861 30.814 191.936 30.9274 192.031 31.0226C192.126 31.1177 192.239 31.1926 192.364 31.2426C192.489 31.2927 192.623 31.3169 192.757 31.3138H196.978V25.7889ZM204.979 25.7889V22.0041H221.563V24.4758L220.4 25.7889H215.902V42.3726H210.663V25.7889H204.979ZM231.895 37.7155L235.53 22.0041H240.768V24.0396L235.253 42.3726H228.269L222.74 24.0396V22.0041H227.974L231.609 37.7155H231.895Z" fill="white"/>
<path fill-rule="evenodd" clip-rule="evenodd" d="M83.9095 41.7049H78.6709V21.3365H83.9095V29.6283H86.3812L89.5844 21.3365H94.823V23.3719L90.7339 31.373L95.2455 39.6694V41.7049H90.0205L86.3857 33.413H83.9141V41.7049H83.9095ZM103.696 41.7049H98.4578V21.3365H109.517C110.139 21.3067 110.76 21.4051 111.342 21.6255C111.924 21.8459 112.455 22.1836 112.902 22.6177C113.315 23.017 113.641 23.4968 113.862 24.0275C114.082 24.5581 114.191 25.1282 114.183 25.7027V31.0822C114.201 31.6648 114.097 32.2446 113.876 32.784C113.655 33.3234 113.323 33.8102 112.902 34.2127C112.45 34.6294 111.92 34.953 111.343 35.165C110.766 35.3771 110.153 35.4734 109.539 35.4485H103.696V41.7049ZM107.904 25.1166H103.683V31.6683H107.904C108.039 31.6715 108.173 31.6469 108.298 31.5961C108.423 31.5453 108.536 31.4694 108.631 31.373C108.727 31.2785 108.802 31.1651 108.852 31.0399C108.902 30.9148 108.926 30.7807 108.921 30.6461V26.1389C108.926 26.0042 108.902 25.8701 108.852 25.745C108.802 25.6199 108.727 25.5065 108.631 25.412C108.536 25.3156 108.423 25.2397 108.298 25.1889C108.173 25.1381 108.039 25.1135 107.904 25.1166ZM117.795 21.3365H123.034V28.3198H128.577C129.192 28.2979 129.806 28.3979 130.383 28.6138C130.96 28.8298 131.489 29.1576 131.939 29.5783C132.363 29.9796 132.697 30.4659 132.92 31.0054C133.143 31.5448 133.25 32.1253 133.234 32.7088V37.3386C133.242 37.9131 133.133 38.4833 132.913 39.0139C132.692 39.5445 132.365 40.0243 131.952 40.4236C131.507 40.8566 130.978 41.1937 130.397 41.414C129.817 41.6344 129.197 41.7334 128.577 41.7049H117.808V21.3365H117.795ZM123.034 37.9247H126.986C127.121 37.9279 127.255 37.9033 127.38 37.8525C127.506 37.8017 127.619 37.7258 127.713 37.6294C127.809 37.5348 127.885 37.4214 127.935 37.2963C127.985 37.1712 128.008 37.0371 128.004 36.9024V33.1223C128.007 32.9878 127.983 32.854 127.933 32.7291C127.883 32.6043 127.808 32.4908 127.713 32.3957C127.618 32.3006 127.504 32.2257 127.379 32.1757C127.255 32.1256 127.121 32.1014 126.986 32.1045H123.056V37.9247H123.034ZM141.366 41.7049H136.141V21.3365H141.38V41.7049H141.366ZM144.002 38.211H145.31C145.456 38.2093 145.6 38.1774 145.733 38.1171C145.866 38.0569 145.985 37.9697 146.083 37.8611C146.3 37.6394 146.437 37.3517 146.473 37.0433L147.927 21.3319H162.189V41.7049H156.973V25.1166H152.607L151.567 37.0478C151.43 38.6956 150.867 39.9329 149.876 40.7599C148.891 41.5822 147.364 41.9957 145.31 41.9957H144.002V38.211ZM166.842 21.3319H172.08V28.3198H177.901C178.515 28.2949 179.128 28.3912 179.705 28.6033C180.282 28.8153 180.811 29.1389 181.263 29.5556C181.687 29.9569 182.021 30.4432 182.244 30.9826C182.468 31.5221 182.574 32.1025 182.558 32.6861V37.3386C182.566 37.9131 182.457 38.4833 182.237 39.0139C182.016 39.5445 181.69 40.0243 181.276 40.4236C180.83 40.8555 180.301 41.1918 179.721 41.4121C179.14 41.6324 178.521 41.7321 177.901 41.7049H166.842V21.3365V21.3319ZM172.08 37.9202H176.301C176.436 37.9233 176.57 37.8988 176.695 37.848C176.821 37.7972 176.934 37.7212 177.028 37.6249C177.124 37.5303 177.2 37.4169 177.25 37.2918C177.3 37.1667 177.323 37.0326 177.319 36.8979V33.1223C177.322 32.9878 177.298 32.854 177.248 32.7291C177.198 32.6043 177.123 32.4908 177.028 32.3957C176.933 32.3006 176.819 32.2257 176.694 32.1757C176.57 32.1256 176.436 32.1014 176.301 32.1045H172.08V37.9247V37.9202ZM201.613 41.7004H196.379V34.4308H194.053L190.559 41.7004H185.32V39.6694L189.232 33.8492C188.633 33.6841 188.063 33.4282 187.542 33.0905C187.022 32.7786 186.594 32.334 186.303 31.8022C186.011 31.2704 185.867 30.6707 185.884 30.0645V25.7027C185.874 25.1294 185.982 24.5602 186.2 24.0299C186.418 23.4995 186.742 23.019 187.151 22.6177C187.598 22.1831 188.13 21.845 188.713 21.6246C189.296 21.4041 189.918 21.3061 190.541 21.3365H201.6V41.7049L201.613 41.7004ZM196.379 25.1166H192.158C192.023 25.1141 191.89 25.1389 191.765 25.1895C191.64 25.24 191.526 25.3153 191.431 25.4108C191.336 25.5063 191.261 25.62 191.211 25.7451C191.161 25.8703 191.137 26.0042 191.14 26.1389V29.6283C191.137 29.7629 191.161 29.8966 191.211 30.0216C191.261 30.1466 191.336 30.2601 191.431 30.3553C191.526 30.451 191.639 30.5263 191.764 30.5763C191.889 30.6263 192.023 30.6501 192.158 30.6461H196.379V25.1166ZM204.38 25.1166V21.3365H220.968V23.8081L219.805 25.1166H215.294V41.7049H210.055V25.1166H204.38ZM231.3 37.0478L234.935 21.3365H240.174V23.3719L234.667 41.7049H227.661L222.132 23.3719V21.3365H227.37L231.005 37.0478H231.3Z" fill="white"/>
<path fill-rule="evenodd" clip-rule="evenodd" d="M5.32954 0.5H59.5742C60.9272 0.504789 62.2234 1.04437 63.1801 2.00106C64.1367 2.95775 64.6763 4.25392 64.6811 5.60688V58.3931C64.6763 59.7461 64.1367 61.0422 63.1801 61.9989C62.2234 62.9556 60.9272 63.4952 59.5742 63.5H5.32954C3.97658 63.4952 2.68041 62.9556 1.72372 61.9989C0.767028 61.0422 0.227446 59.7461 0.222656 58.3931L0.222656 5.60688C0.227446 4.25392 0.767028 2.95775 1.72372 2.00106C2.68041 1.04437 3.97658 0.504789 5.32954 0.5ZM6.97882 2.41281C5.70744 2.4164 4.48916 2.92305 3.59015 3.82206C2.69114 4.72107 2.1845 5.93935 2.1809 7.21073V56.7893C2.1845 58.0606 2.69114 59.2789 3.59015 60.1779C4.48916 61.0769 5.70744 61.5836 6.97882 61.5872H57.925C59.1963 61.5836 60.4146 61.0769 61.3136 60.1779C62.2126 59.2789 62.7193 58.0606 62.7229 56.7893V7.21073C62.7193 5.93935 62.2126 4.72107 61.3136 3.82206C60.4146 2.92305 59.1963 2.4164 57.925 2.41281H6.97882Z" fill="white"/>
<path fill-rule="evenodd" clip-rule="evenodd" d="M35.0118 31.991C35.6025 32.0501 44.1397 31.991 45.0075 31.991H54.358C54.5761 31.991 54.9078 32.0364 54.9441 31.941C54.9804 31.8456 54.8941 31.8183 54.8123 31.7184L52.0862 28.1563C50.6869 26.2798 49.1057 24.3443 47.7109 22.4769C47.5882 22.3134 47.4791 22.1816 47.3565 22.0226L46.2479 20.5959C46.1797 20.5141 46.1479 20.4505 46.0843 20.3688L41.8543 14.9166C41.6044 14.5849 41.4 14.285 41.1274 13.9715C41.0637 13.8943 41.0229 13.8307 40.9592 13.7489L40.7684 13.5081C39.2509 11.4726 37.5425 9.36897 36.0068 7.3244L33.9577 4.71644C33.8987 4.63466 33.8441 4.55742 33.776 4.47109C33.6442 4.31661 31.6178 1.745 31.5815 1.59961H11.5811C11.6992 1.77226 11.8082 1.90402 11.9309 2.05396C13.244 3.76685 14.6888 5.57516 15.9519 7.26988C16.07 7.43345 16.1791 7.56066 16.3063 7.72423L17.7829 9.63704C18.2373 10.205 18.7552 10.9319 19.2459 11.5271L21.2587 14.1305C22.3855 15.6072 23.6667 17.1974 24.7526 18.674C24.8753 18.8421 24.9843 18.9694 25.107 19.1284L30.6046 26.2617L30.9636 26.716L34.6438 31.4912C34.7846 31.682 34.8937 31.8093 35.0118 31.991Z" fill="white"/>
<path fill-rule="evenodd" clip-rule="evenodd" d="M34.9939 31.9908C34.4215 32.8314 32.7904 34.8351 32.0816 35.7846L26.225 43.3677C25.9888 43.6903 25.7389 43.9902 25.4981 44.3173C25.3708 44.4854 25.2618 44.6126 25.1391 44.7717L24.0396 46.2029C23.9124 46.3755 23.7988 46.5118 23.667 46.689C23.5898 46.789 23.5489 46.8299 23.4762 46.9253C22.5948 48.0566 21.259 49.8785 20.373 50.9554C19.8232 51.6187 19.119 52.6319 18.5556 53.3089L18.1785 53.7905C18.0467 53.9677 17.9422 54.1176 17.8105 54.2812C17.6787 54.4447 17.5651 54.5811 17.4334 54.7582C17.1835 55.0945 16.9472 55.3762 16.7019 55.7078L12.3129 61.4054C12.063 61.7325 11.7994 62.0369 11.5723 62.3822H31.5727C31.6136 62.2277 33.8444 59.3653 34.0989 59.0609C34.944 58.0114 35.8345 56.7619 36.6659 55.7442L39.601 51.9367C40.8187 50.3829 42.0409 48.7245 43.2676 47.1888C44.2127 46.0075 45.235 44.5808 46.18 43.3995L48.3836 40.5689C48.629 40.2373 48.8788 39.9374 49.1287 39.6012C49.6149 38.9515 50.101 38.3563 50.5872 37.7065C50.7099 37.543 50.8189 37.4112 50.9416 37.2522L54.6127 32.5042C54.7201 32.3359 54.85 32.183 54.9989 32.0499C54.9989 31.8909 54.9989 32.0499 54.9217 31.9727C54.8853 32.0681 54.5582 32.0226 54.3401 32.0226H44.9669C44.1218 32.0045 35.5846 32.0499 34.9939 31.9908Z" fill="white"/>
</svg>
