<svg width="19" height="13" viewBox="0 0 19 13" fill="none" xmlns="http://www.w3.org/2000/svg">
<path d="M6.47656 0.388184V1.34912C5.10156 2.06787 4.11719 2.81787 3.52344 3.59912C2.92969 4.38037 2.63281 5.23193 2.63281 6.15381C2.63281 6.70068 2.71094 7.07568 2.86719 7.27881C3.00781 7.49756 3.17969 7.60693 3.38281 7.60693C3.58594 7.60693 3.85938 7.55225 4.20312 7.44287C4.54688 7.31787 4.85938 7.25537 5.14062 7.25537C5.78125 7.25537 6.33594 7.49756 6.80469 7.98193C7.28906 8.45068 7.53125 9.02881 7.53125 9.71631C7.53125 10.4663 7.24219 11.1147 6.66406 11.6616C6.08594 12.1929 5.36719 12.4585 4.50781 12.4585C3.46094 12.4585 2.51562 12.0054 1.67188 11.0991C0.828125 10.1929 0.40625 9.07568 0.40625 7.74756C0.40625 6.18506 0.921875 4.73193 1.95312 3.38818C3 2.02881 4.50781 1.02881 6.47656 0.388184ZM17.6562 0.458496V1.34912C16.0781 2.25537 15.0391 3.06787 14.5391 3.78662C14.0391 4.50537 13.7891 5.34912 13.7891 6.31787C13.7891 6.75537 13.875 7.0835 14.0469 7.30225C14.2188 7.521 14.3984 7.63037 14.5859 7.63037C14.7578 7.63037 15.0156 7.56787 15.3594 7.44287C15.7031 7.31787 16.0469 7.25537 16.3906 7.25537C17.0312 7.25537 17.5859 7.48975 18.0547 7.9585C18.5391 8.41162 18.7812 8.97412 18.7812 9.646C18.7812 10.4116 18.4766 11.0757 17.8672 11.6382C17.2734 12.2007 16.5391 12.4819 15.6641 12.4819C14.6328 12.4819 13.7031 12.0366 12.875 11.146C12.0469 10.2554 11.6328 9.146 11.6328 7.81787C11.6328 6.17725 12.1562 4.68506 13.2031 3.34131C14.25 1.98193 15.7344 1.021 17.6562 0.458496Z" fill="#111111"/>
</svg>
