<svg display="none" xmlns="http://www.w3.org/2000/svg">
	<symbol id="search" viewBox="0 0 24 24">
		<path fill-rule="evenodd" clip-rule="evenodd" d="M10 18C5.58172 18 2 14.4183 2 10C2 5.58172 5.58172 2 10 2C14.4183 2 18 5.58172 18 10C18 11.8487 17.3729 13.551 16.3199 14.9056L21.7071 20.2929L20.2929 21.7071L14.9056 16.3199C13.551 17.3729 11.8487 18 10 18ZM16 10C16 13.3137 13.3137 16 10 16C6.68629 16 4 13.3137 4 10C4 6.68629 6.68629 4 10 4C13.3137 4 16 6.68629 16 10Z"/>
	</symbol>
	<symbol id="whatsapp" viewBox="0 0 30 30">
		<path d="M16.6624 22.5953C21.7249 23.8003 23.5062 19.4703 22.6137 17.8541C22.2562 17.2091 19.0437 15.9703 18.8874 15.9103C17.5074 15.4078 16.9974 16.3453 16.0412 17.5791C14.2049 16.6603 12.9737 15.9366 11.7087 13.8791C11.7799 13.7903 11.8749 13.6853 11.9462 13.6053C12.3887 13.1103 13.2174 12.1878 12.6524 11.0591C12.1774 10.1128 11.9412 9.45281 11.7674 8.96906C11.2637 7.56781 10.8799 7.18781 9.14494 7.18781C7.33869 7.18781 5.93744 9.56156 5.93744 11.6053C5.93744 16.0666 11.9349 21.4666 16.6624 22.5953ZM9.14494 9.06281C9.51994 9.06281 9.70994 9.0753 9.80494 9.0903C10.0074 9.51905 10.2124 10.4141 10.9674 11.8066C10.8499 12.2453 9.18119 13.2741 9.95494 14.6041C11.5362 17.2891 13.1187 18.2203 15.3862 19.3478C16.8962 20.0303 17.3787 18.7941 18.3362 17.7078C18.7799 17.8878 20.2774 18.5503 20.9349 18.8828C20.8762 20.1778 19.6262 21.3728 17.0974 20.7703C12.7574 19.7341 7.81119 14.8516 7.81119 11.6041C7.81244 10.3691 8.67869 9.06281 9.14494 9.06281V9.06281Z"/>
		<path d="M0.104112 28.8563C-0.0596383 29.4488 0.384112 30.0426 1.00786 30.0426C1.23286 30.0426 0.865362 30.1001 8.31786 28.1676C11.3516 29.7126 13.6579 29.6638 15.1304 29.8026C28.3241 29.8026 34.7866 13.7113 25.7066 4.34882C13.2604 -7.68118 -6.12339 7.26882 1.98786 22.0076L0.104112 28.8563ZM24.2141 5.51632C24.4304 5.91132 30.6329 11.5051 27.1791 19.8638C25.0529 25.0138 20.1466 28.1876 14.6491 27.8901C10.1766 27.6413 9.01911 26.0438 8.19536 26.2626L2.34161 27.7876L3.89786 22.1326C3.96536 21.8901 3.93161 21.6313 3.80661 21.4138C-3.67214 8.50882 13.2391 -4.75993 24.2141 5.51632Z"/>
	</symbol>
	<symbol id="telegram" viewBox="0 0 22 22">
		<path d="M21.6603 3.52583C21.3916 3.26291 20.9891 3.11816 20.5269 3.11816C20.2756 3.11816 20.0094 3.16046 19.7358 3.24412L1.11319 8.93116C0.124912 9.23289 -0.00818995 9.68567 0.000370223 9.92871C0.00893039 10.1718 0.173923 10.6178 1.18201 10.8744C1.18805 10.8759 1.1941 10.8774 1.20014 10.8787L5.06296 11.7631L7.15198 16.542C7.43682 17.1935 8.07615 17.5982 8.82072 17.5982C9.29018 17.5982 9.75193 17.4409 10.1561 17.1433L12.5454 15.3834L16.011 17.6156C16.0112 17.616 16.0117 17.6161 16.0121 17.6164L16.045 17.6375C16.048 17.6395 16.0512 17.6414 16.0543 17.6434C16.4395 17.8823 16.8599 18.0086 17.2706 18.0087H17.2707C18.0732 18.0087 18.7122 17.5335 18.8984 16.7982L21.9496 4.74494C22.0722 4.26113 21.9694 3.82822 21.6603 3.52583ZM6.35521 11.5951L13.8078 8.54927L9.16731 12.4939C9.09128 12.5585 9.0374 12.6376 9.01088 12.7237L8.11609 15.6233L6.35521 11.5951ZM9.2828 16.3846C9.25192 16.4074 9.22086 16.4276 9.1898 16.4462L10.02 13.7564L11.5301 14.7293L9.2828 16.3846ZM20.6864 4.54017L17.635 16.5936C17.6056 16.7089 17.5118 16.9773 17.2706 16.9773C17.1514 16.9773 17.0017 16.9253 16.8485 16.831L12.9216 14.3015C12.9211 14.3011 12.9204 14.3006 12.9197 14.3004L10.5831 12.7951L17.2938 7.09063C17.5086 6.908 17.5281 6.62831 17.3399 6.42769C17.1516 6.22709 16.8104 6.16397 16.5313 6.27812L5.49399 10.789L1.57863 9.89286L20.1955 4.20756C20.3528 4.15948 20.4626 4.14941 20.5269 4.14941C20.5663 4.14941 20.6365 4.15317 20.6625 4.17882C20.6967 4.21226 20.7404 4.32625 20.6864 4.54017Z"/>
	</symbol>
	<symbol id="vk" viewBox="0 0 30 30">
		<path d="M15.1811 24C19.521 24 17.9736 21.3624 18.3085 20.604C18.3035 20.0376 18.2985 19.4928 18.3185 19.1616C18.5935 19.236 19.2423 19.5516 20.5823 20.802C22.651 22.806 23.1797 24 24.851 24H27.9272C28.9022 24 29.4097 23.6124 29.6634 23.2872C29.9084 22.9728 30.1484 22.4208 29.8859 21.5616C29.1997 19.4928 25.1972 15.9204 24.9485 15.5436C24.986 15.474 25.046 15.3816 25.0772 15.3336H25.0747C25.8647 14.3316 28.8797 9.9948 29.3234 8.2596C29.3247 8.2572 29.3259 8.2536 29.3259 8.25C29.5659 7.458 29.3459 6.9444 29.1184 6.654C28.7759 6.2196 28.2309 6 27.4947 6H24.4185C23.3885 6 22.6073 6.498 22.2123 7.4064C21.551 9.0204 19.6935 12.3396 18.301 13.5144C18.2585 11.85 18.2873 10.5792 18.3098 9.6348C18.3548 7.7928 18.4998 6 16.5086 6H11.6736C10.4261 6 9.2324 7.308 10.5249 8.8608C11.6549 10.2216 10.9311 10.98 11.1749 14.7552C10.2249 13.7772 8.53491 11.136 7.33992 7.7604C7.00492 6.8472 6.49743 6.0012 5.06869 6.0012H1.99248C0.744992 6.0012 0 6.654 0 7.7472C0 10.2024 5.66119 24 15.1811 24V24ZM5.06869 7.8012C5.33994 7.8012 5.36744 7.8012 5.56869 8.3496C6.79243 11.8092 9.5374 16.9284 11.5424 16.9284C13.0486 16.9284 13.0486 15.4464 13.0486 14.8884L13.0474 10.446C12.9649 8.976 12.4074 8.244 12.0411 7.8L16.4261 7.8048C16.4286 7.8252 16.4011 12.7188 16.4386 13.9044C16.4386 15.588 17.8311 16.5528 20.0048 14.4408C22.2985 11.9556 23.8847 8.2404 23.9485 8.0892C24.0422 7.8732 24.1235 7.8 24.4185 7.8H27.4947H27.5072C27.5059 7.8036 27.5059 7.8072 27.5047 7.8108C27.2235 9.0708 24.4472 13.086 23.5185 14.3328C23.5035 14.352 23.4897 14.3724 23.476 14.3928C23.0672 15.0336 22.7348 15.7416 23.5322 16.7376H23.5335C23.606 16.8216 23.7947 17.0184 24.0697 17.292C24.9247 18.1392 27.8572 21.036 28.1172 22.188C27.9447 22.2144 27.7572 22.1952 24.851 22.2012C24.2322 22.2012 23.7485 21.3132 21.9023 19.5252C20.2423 17.9748 19.1648 17.3412 18.1836 17.3412C16.2786 17.3412 16.4173 18.8256 16.4348 20.6208C16.4411 22.5672 16.4286 21.9516 16.4423 22.074C16.3311 22.116 16.0123 22.2 15.1811 22.2C7.24992 22.2 2.08498 10.1148 1.88623 7.8048C1.95498 7.7988 2.90122 7.8024 5.06869 7.8012V7.8012Z"/>
	</symbol>
	<symbol id="youtube" viewBox="0 0 30 30">
		<path d="M19.6174 14.0518L12.9897 10.4254C12.6087 10.2168 12.1582 10.2246 11.7847 10.446C11.4109 10.6675 11.188 11.0589 11.188 11.4933V18.6839C11.188 19.1162 11.4095 19.5069 11.7808 19.7287C11.9747 19.8445 12.1896 19.9027 12.4049 19.9027C12.6022 19.9027 12.8 19.8539 12.982 19.756L19.6099 16.192C20.0033 15.9803 20.2489 15.5713 20.2508 15.1243C20.2524 14.6773 20.0097 14.2665 19.6174 14.0518V14.0518ZM12.946 17.7793V12.4052L17.8995 15.1156L12.946 17.7793Z"/>
		<path d="M29.7792 9.39577L29.7779 9.38203C29.7525 9.14056 29.4995 6.99274 28.4554 5.90028C27.2485 4.61534 25.8803 4.45924 25.2222 4.3844C25.1677 4.37822 25.1179 4.3725 25.0732 4.36655L25.0208 4.36105C21.0548 4.07266 15.0652 4.03329 15.0052 4.03307L14.9999 4.03284L14.9947 4.03307C14.9347 4.03329 8.94512 4.07266 4.94337 4.36105L4.8905 4.36655C4.84793 4.37227 4.80101 4.37753 4.74997 4.38348C4.09949 4.45856 2.74588 4.61488 1.53556 5.94629C0.541075 7.02707 0.2536 9.12889 0.224074 9.3651L0.220641 9.39577C0.211715 9.49625 0 11.8883 0 14.2897V16.5346C0 18.936 0.211715 21.3281 0.220641 21.4288L0.222243 21.4439C0.247649 21.6815 0.500334 23.7899 1.53968 24.8828C2.67447 26.1247 4.10933 26.2891 4.88111 26.3774C5.00311 26.3914 5.10816 26.4033 5.1798 26.4159L5.24916 26.4255C7.53911 26.6434 14.7189 26.7507 15.0233 26.7551L15.0324 26.7553L15.0416 26.7551C15.1016 26.7549 21.0909 26.7155 25.057 26.4271L25.1094 26.4216C25.1595 26.415 25.2158 26.409 25.2776 26.4026C25.9244 26.3339 27.2707 26.1913 28.4643 24.878C29.4588 23.797 29.7465 21.6952 29.7758 21.4592L29.7792 21.4285C29.7882 21.3278 30.0001 18.936 30.0001 16.5346V14.2897C29.9999 11.8883 29.7882 9.49648 29.7792 9.39577V9.39577ZM28.2418 16.5346C28.2418 18.7573 28.0478 21.0463 28.0294 21.2564C27.9548 21.8353 27.6516 23.1651 27.167 23.6917C26.42 24.5136 25.6525 24.5951 25.0922 24.6544C25.0245 24.6615 24.9618 24.6684 24.905 24.6755C21.0689 24.9529 15.3055 24.9954 15.04 24.997C14.7422 24.9927 7.66751 24.8844 5.44737 24.6782C5.33361 24.6597 5.2107 24.6455 5.08116 24.6308C4.42404 24.5555 3.52454 24.4525 2.83286 23.6917L2.81661 23.6743C2.34054 23.1783 2.04597 21.9348 1.97112 21.2633C1.95716 21.1044 1.75803 18.7884 1.75803 16.5346V14.2897C1.75803 12.0696 1.95167 9.78304 1.97044 9.56857C2.05947 8.88673 2.36846 7.6375 2.83286 7.13258C3.60281 6.28572 4.41466 6.19188 4.95161 6.12985C5.00288 6.1239 5.05072 6.11841 5.09489 6.11269C8.98678 5.83391 14.7917 5.79248 14.9999 5.79088C15.2082 5.79225 21.011 5.83391 24.8684 6.11269C24.9157 6.11864 24.9675 6.12459 25.0231 6.131C25.5754 6.19394 26.4101 6.28915 27.1762 7.10626L27.1833 7.11382C27.6593 7.6098 27.9539 8.87506 28.0288 9.5601C28.042 9.71002 28.2418 12.0311 28.2418 14.2897V16.5346Z"/>
	</symbol>
	<symbol id="arrow" viewBox="0 0 6 10">
		<path d="M5.5865 4.72558L0.961201 0.113083C0.809659 -0.0379512 0.564308 -0.0376973 0.41302 0.113865C0.261849 0.265407 0.262239 0.510894 0.413801 0.662046L4.76378 5.00002L0.413645 9.33797C0.262103 9.48914 0.261712 9.73447 0.412864 9.88603C0.488703 9.96201 0.588058 10 0.687414 10C0.786515 10 0.885479 9.96226 0.961182 9.88681L5.5865 5.27443C5.65948 5.20181 5.70044 5.10299 5.70044 5.00002C5.70044 4.89705 5.65937 4.79834 5.5865 4.72558Z"/>
	</symbol>
	<symbol id="play" viewBox="0 0 11 15">
		<path d="M0 14.925V0.925049L11 7.92505L0 14.925ZM1.5 12.2L8.225 7.92505L1.5 3.65005V12.2Z"/>
		<path d="M1.5 12.2L8.225 7.92505L1.5 3.65005V12.2Z"/>
	</symbol>
	<symbol id="quote" viewBox="0 0 19 13">
		<path d="M6.47656 0.388184V1.34912C5.10156 2.06787 4.11719 2.81787 3.52344 3.59912C2.92969 4.38037 2.63281 5.23193 2.63281 6.15381C2.63281 6.70068 2.71094 7.07568 2.86719 7.27881C3.00781 7.49756 3.17969 7.60693 3.38281 7.60693C3.58594 7.60693 3.85938 7.55225 4.20312 7.44287C4.54688 7.31787 4.85938 7.25537 5.14062 7.25537C5.78125 7.25537 6.33594 7.49756 6.80469 7.98193C7.28906 8.45068 7.53125 9.02881 7.53125 9.71631C7.53125 10.4663 7.24219 11.1147 6.66406 11.6616C6.08594 12.1929 5.36719 12.4585 4.50781 12.4585C3.46094 12.4585 2.51562 12.0054 1.67188 11.0991C0.828125 10.1929 0.40625 9.07568 0.40625 7.74756C0.40625 6.18506 0.921875 4.73193 1.95312 3.38818C3 2.02881 4.50781 1.02881 6.47656 0.388184ZM17.6562 0.458496V1.34912C16.0781 2.25537 15.0391 3.06787 14.5391 3.78662C14.0391 4.50537 13.7891 5.34912 13.7891 6.31787C13.7891 6.75537 13.875 7.0835 14.0469 7.30225C14.2188 7.521 14.3984 7.63037 14.5859 7.63037C14.7578 7.63037 15.0156 7.56787 15.3594 7.44287C15.7031 7.31787 16.0469 7.25537 16.3906 7.25537C17.0312 7.25537 17.5859 7.48975 18.0547 7.9585C18.5391 8.41162 18.7812 8.97412 18.7812 9.646C18.7812 10.4116 18.4766 11.0757 17.8672 11.6382C17.2734 12.2007 16.5391 12.4819 15.6641 12.4819C14.6328 12.4819 13.7031 12.0366 12.875 11.146C12.0469 10.2554 11.6328 9.146 11.6328 7.81787C11.6328 6.17725 12.1562 4.68506 13.2031 3.34131C14.25 1.98193 15.7344 1.021 17.6562 0.458496Z" fill="#111111"/>
	</symbol>

</svg>